<?xml version="1.0" encoding="UTF-8" standalone="no"?>
<!-- Created with Inkscape (http://www.inkscape.org/) -->

<svg
        xmlns:dc="http://purl.org/dc/elements/1.1/"
        xmlns:cc="http://creativecommons.org/ns#"
        xmlns:rdf="http://www.w3.org/1999/02/22-rdf-syntax-ns#"
        xmlns="http://www.w3.org/2000/svg"
        xmlns:sodipodi="http://sodipodi.sourceforge.net/DTD/sodipodi-0.dtd"
        xmlns:inkscape="http://www.inkscape.org/namespaces/inkscape"
        width="497.34503"
        height="91.443459"
        id="svg2"
        version="1.1"
        inkscape:version="0.48.1 r9760"
        sodipodi:docname="cookiecutter-logo.svg"
        inkscape:export-filename="/Users/audreyr/code/cookiecutter-repos/cookiecutter/logo/cookiecutter-logo-large.png"
        inkscape:export-xdpi="720.44519"
        inkscape:export-ydpi="720.44519">
  <defs
     id="defs4" />
  <sodipodi:namedview
     id="base"
     pagecolor="#ffffff"
     bordercolor="#666666"
     borderopacity="1.0"
     inkscape:pageopacity="0.0"
     inkscape:pageshadow="2"
     inkscape:zoom="0.7"
     inkscape:cx="147.49765"
     inkscape:cy="150.49768"
     inkscape:document-units="px"
     inkscape:current-layer="layer1"
     showgrid="false"
     inkscape:window-width="1200"
     inkscape:window-height="671"
     inkscape:window-x="251"
     inkscape:window-y="0"
     inkscape:window-maximized="0"
     fit-margin-top="0"
     fit-margin-left="0"
     fit-margin-right="0"
     fit-margin-bottom="0" />
  <metadata
     id="metadata7">
    <rdf:RDF>
      <cc:Work
         rdf:about="">
        <dc:format>image/svg+xml</dc:format>
        <dc:type
           rdf:resource="http://purl.org/dc/dcmitype/StillImage" />
        <dc:title></dc:title>
      </cc:Work>
    </rdf:RDF>
  </metadata>
  <g
     inkscape:label="Layer 1"
     inkscape:groupmode="layer"
     id="layer1"
     transform="translate(-81.421129,-480.92619)">
    <path
       sodipodi:type="arc"
       style="fill:#d4aa00;fill-opacity:1;stroke:none"
       id="path3054"
       sodipodi:cx="115.71429"
       sodipodi:cy="528.79077"
       sodipodi:rx="45.714287"
       sodipodi:ry="45.714287"
       d="m 155.20132,551.82488 c -12.72138,21.80808 -40.71305,29.17431 -62.521137,16.45293 -21.808089,-12.72139 -29.174317,-40.71305 -16.452933,-62.52114 12.721385,-21.80809 40.71305,-29.17432 62.52114,-16.45294 4.63699,2.70491 8.7613,6.20542 12.18392,10.34109 l -35.21802,29.14595 z"
       sodipodi:start="0.52807444"
       sodipodi:end="5.5918484"
       transform="translate(11.428571,-2.1428571)" />
    <path
       style="fill:#5d502c;fill-opacity:1"
       d="m 174.1517,543.23678 c -2.86639,-1.46213 -5.17078,-3.70694 -6.98735,-6.80667 -2.33578,-3.98572 -2.71075,-5.7319 -2.71256,-12.6322 -0.003,-11.95429 4.32421,-18.88311 13.51266,-21.63603 6.67974,-2.0013 15.97264,0.58988 15.96039,4.45032 -0.002,0.64821 -0.88485,2.62366 -1.96177,4.38988 -1.80588,2.96176 -2.18765,3.13126 -4.91293,2.18122 -3.66292,-1.2769 -8.61466,0.94159 -9.70155,4.3465 -1.49371,4.67938 -0.6965,10.83711 1.74101,13.44767 2.04608,2.19135 2.98722,2.45219 7.51549,2.08299 l 5.17651,-0.42205 1.74723,3.87467 c 1.70099,3.77214 1.69279,3.9291 -0.3101,5.93198 -3.21363,3.21364 -13.48311,3.64006 -19.06703,0.79172 z m 35.01712,-0.0561 c -7.05698,-3.49314 -10.24024,-9.81686 -10.24024,-20.34276 0,-11.72688 6.51777,-19.99206 16.71803,-21.20013 8.99701,-1.06556 17.89463,3.91931 20.36697,11.41055 1.56836,4.75219 1.61193,15.76694 0.0804,20.31455 -3.4197,10.15392 -16.56363,14.94664 -26.92512,9.81779 z m 14.29035,-12.23702 c 2.29217,-3.27253 1.95683,-13.16544 -0.53059,-15.65286 -2.56198,-2.56198 -7.17699,-2.5669 -9.49083,-0.0101 -2.28987,2.53028 -3.03595,10.67401 -1.28172,13.99042 2.63174,4.97536 8.39269,5.82783 11.30314,1.67257 z m 28.70965,12.23702 c -7.50247,-3.71365 -10.7936,-10.91193 -10.00815,-21.88959 0.83309,-11.64346 6.68681,-18.49274 16.83166,-19.69425 9.44556,-1.11868 18.90428,5.04397 20.6016,13.42258 2.04374,10.08871 0.45573,19.02471 -4.32031,24.31123 -5.5866,6.18369 -15.16559,7.77987 -23.1048,3.85003 z m 14.24695,-12.27335 c 1.3732,-2.13961 1.93937,-5.83778 1.66361,-10.86653 -0.32353,-5.9 -7.83174,-8.97002 -11.64163,-4.76013 -2.28987,2.53028 -3.03595,10.67401 -1.28172,13.99042 2.63632,4.98401 8.55878,5.84465 11.25974,1.63624 z m 22.76281,13.57011 -3.25,-0.31336 0,-20.81164 0,-20.81164 3,-0.6 c 1.65,-0.33 4.35,-0.33 6,0 l 3,0.6 0.0868,8.125 0.0868,8.125 3.95606,-8.25 3.95607,-8.25 6.45714,0 c 3.55143,0 6.44897,0.3375 6.43898,0.75 -0.01,0.4125 -2.26,4.74416 -5,9.62591 -2.74003,4.88175 -4.98185,9.33039 -4.98185,9.88585 0,0.55546 2.67042,4.74325 5.93426,9.3062 6.37161,8.9077 6.36898,8.75749 0.20804,11.88843 -5.24167,2.66377 -7.16231,1.52389 -11.6423,-6.90956 -2.2,-4.14143 -4.3375,-7.53369 -4.75,-7.53836 -0.4125,-0.005 -0.75,3.31545 -0.75,7.37803 0,7.30321 -0.031,7.3906 -2.75,7.75 -1.5125,0.19992 -4.2125,0.22249 -6,0.0501 z m 102.23141,-0.58021 c -9.93381,-4.32843 -14.02579,-18.95618 -8.83139,-31.56983 1.94651,-4.72675 4.13476,-6.99063 8.84998,-9.15587 4.88141,-2.24155 10.37157,-2.37906 15.1569,-0.37962 3.3135,1.38447 3.54319,1.74845 2.956,4.68438 -0.97431,4.87155 -3.25052,6.90278 -6.39542,5.7071 -3.388,-1.28812 -7.58891,0.43244 -9.08776,3.72205 -1.88406,4.13507 -1.39,10.78475 1.02986,13.8611 1.98551,2.52417 2.59944,2.70898 7.61705,2.29288 5.42564,-0.44994 5.46586,-0.43251 6.89485,2.98754 0.79055,1.89206 1.2949,4.18345 1.12076,5.09198 -0.68336,3.56538 -13.31707,5.36994 -19.31083,2.75829 z m 31.48048,-0.85643 c -7.0884,-3.57447 -7.95849,-6.30705 -7.96034,-25 l -0.002,-15.75 6.5,0 6.5,0 0,14.96482 c 0,13.94136 0.13678,15.03802 2,16.03518 1.40809,0.75359 2.58403,0.7578 3.97339,0.0142 1.80658,-0.96686 1.99676,-2.3011 2.25,-15.78518 l 0.27661,-14.72906 6.25,-0.29772 6.25,-0.29772 0,16.59738 c 0,19.27786 -0.67368,21.53882 -7.31632,24.55468 -5.75789,2.61417 -13.17042,2.49277 -18.72179,-0.30662 z m 40.31528,1.44246 c -0.85677,-0.54434 -1.30581,-5.40436 -1.5,-16.23469 l -0.27717,-15.45777 -4.14342,-0.30229 c -3.49124,-0.25471 -4.21707,-0.68756 -4.61133,-2.75 -0.25735,-1.34624 -0.25285,-3.57271 0.01,-4.94771 l 0.4779,-2.5 14.38343,0 14.38342,0 0,4.9425 0,4.9425 -4.25,0.3075 -4.25,0.3075 -0.27717,15.45777 c -0.29809,16.62475 -0.42823,17.0116 -5.72283,17.0116 -1.65,0 -3.55028,-0.34961 -4.22283,-0.77691 z m 31,0 c -0.85677,-0.54434 -1.30581,-5.40436 -1.5,-16.23469 l -0.27717,-15.45777 -4.25,-0.3075 -4.25,-0.3075 0,-4.9425 0,-4.9425 14.5,0 14.5,0 0,4.9425 0,4.9425 -4.25,0.3075 -4.25,0.3075 -0.27717,15.45777 c -0.29809,16.62475 -0.42823,17.0116 -5.72283,17.0116 -1.65,0 -3.55028,-0.34961 -4.22283,-0.77691 z m 55.47283,0.11821 c -1.59664,-0.41724 -1.75,-2.29881 -1.75,-21.47005 l 0,-21.01273 11.43715,0.33606 c 10.97656,0.32252 11.55571,0.44974 14.38102,3.15915 4.80066,4.60372 4.83668,14.02205 0.0719,18.78688 -1.97348,1.97347 -1.968,2.00005 1.63803,7.93621 1.98998,3.27586 3.47275,6.6995 3.29504,7.60809 -0.41161,2.10451 -7.3391,5.74543 -9.41559,4.9486 -0.86496,-0.33192 -2.9722,-3.75335 -4.68275,-7.60318 -4.05991,-9.13729 -5.7248,-9.17355 -5.7248,-0.1247 l 0,6.875 -3.125,0.625 c -3.29212,0.65842 -3.36213,0.65769 -6.125,-0.0643 z m 14.25,-24.31067 c 1.1,-1.1 2,-2.64286 2,-3.42857 0,-2.04082 -2.8074,-4.57143 -5.07143,-4.57143 -1.64762,0 -1.92857,0.72839 -1.92857,5 0,5.60085 1.49947,6.50053 5,3 z m -240.80479,19.25 c 0.27912,-4.34991 0.53642,-4.77665 3.05479,-5.06642 l 2.75,-0.31643 0,-10.86715 0,-10.86715 -2.75,-0.31643 c -2.52152,-0.29013 -2.77544,-0.71384 -3.05615,-5.0997 l -0.30615,-4.78327 11.30615,0.28327 11.30615,0.28328 0,4.5 c 0,4.16572 -0.20428,4.52351 -2.75,4.81642 l -2.75,0.31643 0,10.86715 0,10.86715 2.75,0.31643 c 2.51837,0.28977 2.77567,0.71651 3.05479,5.06642 l 0.30479,4.75 -11.60958,0 -11.60958,0 z m 27.80479,-16.25 0,-21 12,0 12,0 0,5 0,5 -6,0 -6,0 0,3.4425 c 0,3.33391 0.1338,3.4522 4.24137,3.75 4.56486,0.33095 5.50122,1.71265 4.32813,6.38659 -0.51553,2.05404 -1.21088,2.42091 -4.58855,2.42091 -3.75661,0 -3.98095,0.16906 -3.98095,3 0,2.99387 0.012,3 5.89159,3 5.45038,0 5.93858,0.18722 6.51905,2.5 0.34511,1.375 0.34511,3.625 0,5 -0.62528,2.49133 -0.66867,2.5 -12.51905,2.5 l -11.89159,0 z m 166.6967,20.36337 c -0.38318,-0.38319 -0.6967,-9.8467 -0.6967,-21.03004 l 0,-20.33333 11.89159,0 c 11.85038,0 11.89377,0.009 12.51905,2.5 0.34511,1.375 0.34511,3.625 0,5 -0.58047,2.31278 -1.06867,2.5 -6.51905,2.5 l -5.89159,0 0,3.5 c 0,3.48802 0.0156,3.5 4.5575,3.5 l 4.5575,0 -0.3075,4.25 c -0.30601,4.22934 -0.32816,4.25149 -4.5575,4.5575 -3.96743,0.28705 -4.25,0.50313 -4.25,3.25 0,2.92868 0.0281,2.9425 5.98095,2.9425 5.47805,0 6.03156,0.20166 6.58288,2.39829 0.33106,1.31905 0.45213,3.45656 0.26905,4.75 -0.32485,2.29499 -0.61151,2.35846 -11.88618,2.63174 -6.35431,0.15402 -11.86681,-0.0335 -12.25,-0.41666 z"
       id="path3052"
       inkscape:connector-curvature="0"
       sodipodi:nodetypes="sscscssssscssscsssscccsssccsssssssssssccccsscccccscssssscssccsssssssssssscccccsscscccssccsscssscccccccssssscccccccccccssscscsssssssscsccssssssscccsscccsscccsscccsccccccccssssssssscccscscsscsscsssssssc" />
    <path
       sodipodi:type="arc"
       style="fill:#000000;fill-opacity:1;stroke:none"
       id="path3082"
       sodipodi:cx="128.54192"
       sodipodi:cy="512.18311"
       sodipodi:rx="4.2931485"
       sodipodi:ry="4.2931485"
       d="m 132.25025,514.3463 c -1.1947,2.04805 -3.82347,2.73984 -5.87153,1.54514 -2.04805,-1.1947 -2.73983,-3.82347 -1.54514,-5.87153 1.1947,-2.04805 3.82347,-2.73983 5.87153,-1.54514 1.99589,1.16427 2.71227,3.6994 1.62091,5.73606 l -3.7841,-2.02772 z"
       sodipodi:start="0.52807444"
       sodipodi:end="6.7751035"
       transform="matrix(1.1461694,0,0,1.1461694,-18.283812,-77.600061)" />
    <path
       sodipodi:nodetypes="sssssssssscssscc"
       inkscape:connector-curvature="0"
       id="path3143"
       d="m 136.58357,564.17632 c -2.57545,-2.84584 -1.54092,-10.17126 1.43642,-10.17126 1.41775,0 5.1897,8.82505 4.519,10.57287 -0.76591,1.99595 -3.98193,1.77907 -5.95542,-0.40161 z M 98.327543,530.60235 c -0.296048,-0.77148 0.44849,-3.69648 1.654529,-6.5 1.926428,-4.4781 2.550248,-5.09729 5.135398,-5.09729 3.93442,0 6.81111,1.65512 6.81111,3.91882 0,2.64257 -7.46886,9.08118 -10.53427,9.08118 -1.39067,0 -2.770719,-0.63122 -3.066767,-1.40271 z m 9.851037,-35.25957 c -2.00561,-0.80928 -1.44771,-2.97815 1.21482,-4.72271 3.06867,-2.01067 4.83386,-2.02904 8.58484,-0.0893 3.22475,1.66758 3.85604,3.91279 1.36855,4.86733 -1.85425,0.71155 -9.35988,0.67439 -11.16821,-0.0553 z"
       style="fill:#715a00;fill-opacity:1" />
  </g>
</svg>
